<svg id="Layer_1" data-name="Layer 1" xmlns="http://www.w3.org/2000/svg" viewBox="0 0 250 100"><defs><style>.cls-1{fill:#4d6bfe;}.cls-2{fill:#0a0f2c;}</style></defs><path class="cls-1" d="M44.8,54.66c3.86,3.81,7.73,7.61,11.57,11.43,5.46,5.42,10.94,10.82,16.31,16.32a4.06,4.06,0,0,1,1.13,3c-.24,1.44-1.76,1.22-2.93,1.22-7.24,0-14.48.07-21.71,0a5.14,5.14,0,0,1-3.23-1.3q-13.53-13.44-26.87-27c-.56-.57-1.19-1.84-.93-2.27a3.23,3.23,0,0,1,2.36-1.18c7.17-.09,14.34-.06,21.51-.07h2.56c-.6-.73-.86-1.13-1.2-1.46Q25.28,35.1,7.19,17a5.47,5.47,0,0,1-1-1.95.94.94,0,0,1,.5-1.18A6.15,6.15,0,0,1,9,13.12c11.87-.08,23.74-.12,35.61,0,4.28,0,8.67-.13,12.84.68,9.69,1.89,16.12,10.54,15.91,20.62A20.58,20.58,0,0,1,56.56,54a68.74,68.74,0,0,1-8.75.46l-3,.13Z"/><path class="cls-2" d="M190.34,86.76a6.3,6.3,0,0,1-.79,0q-7.43.06-14.86,0c-2.33,0-3-.76-3-3.09q0-14.67,0-29.33V52.05c-1.13.42-2,.67-2.8,1.06-5.43,2.71-10.3,6.12-13.73,11.29L142.16,84c-.4.59-.66,1.4-1.22,1.74a4,4,0,0,1-2.66.85c-.6-.15-1.3-1.4-1.32-2.17-.12-4.63-.05-9.26-.05-13.89l0-54.74c0-2.24.58-2.84,2.93-2.86,4.57,0,9.13,0,13.69,0,3.13,0,3.68.54,3.68,3.61,0,13.88,0,27.76.29,41.73.18-.49.36-1,.53-1.48,2.43-7.12,5.56-13.81,11.82-18.47,4.23-3.15,8.91-4.59,14.15-2.88a11.62,11.62,0,0,1,8.23,11c.05,5.93.06,11.86.07,17.79a17.47,17.47,0,0,0-4,1.4A11.75,11.75,0,0,0,182.36,78,11,11,0,0,0,190.34,86.76Z"/><path class="cls-2" d="M104.78,65.34a6.61,6.61,0,0,0-.49-.65c-1.19,2.37-2.29,4.62-3.44,6.84-1.53,3-2.94,6-4.71,8.77-3.34,5.25-8.39,7.62-13.33,6.59A11,11,0,0,1,74.29,78a11.76,11.76,0,0,1,5.94-12.4,18.64,18.64,0,0,1,7.27-1.84c5.32-.27,10.67-.08,16.45-.08"/><path class="cls-1" d="M104,63.65c-2.51-5.55-4.86-10.75-7.22-15.95-1.14-2.49-2.23-5-3.46-7.44a4.31,4.31,0,0,1-.11-3.91c2.9-7.11,5.72-14.26,8.65-21.36.3-.73,1.14-1.7,1.74-1.71s1.48.93,1.8,1.65c4.2,9.32,8.31,18.68,12.47,28q8.76,19.72,17.57,39.43a11.21,11.21,0,0,1,.47,1.07c.66,2-.16,3.32-2.21,3.34-5.73,0-11.47,0-17.21,0-1.71,0-2.3-1.2-2.89-2.48q-4.36-9.48-8.77-19"/><path class="cls-2" d="M212.81,65.28c-.08-.14-.22-.28-.45-.59-1.19,2.37-2.29,4.62-3.44,6.84-1.54,3-2.94,6-4.71,8.77-3.34,5.25-8.39,7.63-13.33,6.59l-.54-.13,2-22.59a20.2,20.2,0,0,1,3.23-.44c5.33-.27,10.68-.09,16.46-.09Z"/><path class="cls-1" d="M211.82,63.65C209.31,58.1,207,52.9,204.59,47.7c-1.13-2.49-2.22-5-3.46-7.44a4.38,4.38,0,0,1-.11-3.91c2.9-7.11,5.72-14.26,8.65-21.36.3-.73,1.14-1.7,1.75-1.71s1.47.93,1.8,1.65c4.19,9.32,8.3,18.68,12.46,28q8.77,19.72,17.57,39.43a11.21,11.21,0,0,1,.47,1.07c.67,2-.16,3.32-2.2,3.34-5.74,0-11.48,0-17.21,0-1.72,0-2.3-1.2-2.89-2.48q-4.38-9.48-8.78-19"/></svg>